# xmcd CD database file
# Copyright (C) 1997 Ti Kan
#
# Track frame offsets:
#  150
#  12860
#  25470
#  37393
#  49425
#  61543
#  73563
#  85558
#  96715
#  108385
#  123638
#  148965
#  164055
#  182910
#  197533
#  211288
#  235273
#
# Disc length: 3402 seconds
#
# Revision: 1
# Processed by: cddbd v1.4b41PL1 Copyright (c) Steve Scherf et al.
# Submitted via: CDWizzard Release:4.32
#
DISCID=020d4811
DTITLE=Tyrone Davis - Greatest Hits
DYEAR=1900
DGENRE=
TTITLE0=Can I Change My Mind
TTITLE1=A Woman Needs To Be Loved
TTITLE2=Is It Something You've Got
TTITLE3=Turn Back The Hands Of Time
TTITLE4=I Keep Coming Back
TTITLE5=I'll Be Right Here
TTITLE6=Let Me Back In
TTITLE7=Could I Forget You
TTITLE8=One-Way Ticket
TTITLE9=You Keep Me Holding On 
TTITLE10=I Had It All The Time
TTITLE11=Without You In My Life
TTITLE12=There It Is
TTITLE13=I Wish It Were Me
TTITLE14=Homewreckers
TTITLE15=It's So Good (To Be Home With You)
TTITLE16=Turning Point
EXTD=
EXTT0=
EXTT1=
EXTT2=
EXTT3=
EXTT4=
EXTT5=
EXTT6=
EXTT7=
EXTT8=
EXTT9=
EXTT10=
EXTT11=
EXTT12=
EXTT13=
EXTT14=
EXTT15=
EXTT16=
PLAYORDER=
